<?xml version="1.0" standalone="no"?>
<!DOCTYPE svg PUBLIC "-//W3C//DTD SVG 20010904//EN"
 "http://www.w3.org/TR/2001/REC-SVG-20010904/DTD/svg10.dtd">
<svg version="1.0" xmlns="http://www.w3.org/2000/svg"
 width="300.000000pt" height="450.000000pt" viewBox="0 0 300.000000 450.000000"
 preserveAspectRatio="xMidYMid meet">
<metadata>
Created by potrace 1.10, written by Peter Selinger 2001-2011
</metadata>
<g transform="translate(0.000000,450.000000) scale(0.100000,-0.100000)"
fill="#f93205" stroke="none">
<path d="M1310 3980 c-121 -26 -188 -53 -287 -119 -107 -71 -196 -157 -261
-255 -47 -70 -118 -223 -109 -233 7 -7 1427 -9 1467 -2 19 4 -232 8 -557 9
-326 2 -605 4 -620 6 -16 1 -73 5 -128 9 -55 4 -103 9 -107 11 -9 6 25 99 45
123 7 9 18 28 25 44 6 15 16 27 22 27 5 0 10 6 10 13 0 8 33 48 73 89 70 74
194 164 266 194 48 21 151 53 151 48 0 -3 9 0 19 6 31 16 249 19 337 4 204
-35 368 -129 494 -284 51 -62 65 -84 81 -120 5 -13 14 -27 18 -30 14 -9 41
-73 41 -96 0 -30 -7 -33 -74 -35 -95 -3 -62 -19 40 -19 110 0 105 -8 54 107
-122 271 -351 454 -635 508 -103 20 -260 18 -365 -5z"/>
<path d="M636 3323 c-4 -16 -26 -131 -26 -140 0 -2 401 -3 891 -3 843 0 890 1
885 18 -2 9 -7 37 -11 62 -4 25 -9 53 -11 63 -5 16 -55 17 -864 17 -809 0
-859 -1 -864 -17z m1637 -6 c50 -7 67 -23 67 -62 0 -26 -5 -34 -22 -37 -20 -4
-1595 -3 -1640 1 -14 1 -18 10 -18 36 0 23 6 37 18 43 9 5 93 12 186 16 93 3
171 8 173 10 6 6 1192 -1 1236 -7z"/>
<path d="M610 3100 c0 -14 3 -47 6 -75 l6 -50 876 3 c482 1 877 3 878 5 1 1 5
34 9 72 l7 70 -891 0 -891 0 0 -25z m1030 -13 l705 -2 2 -27 c1 -15 -3 -31 -9
-34 -12 -8 -1632 -15 -1664 -7 -25 5 -38 47 -20 63 12 9 204 18 256 12 14 -2
342 -4 730 -5z"/>
<path d="M640 2886 c0 -2 11 -28 24 -58 l24 -54 149 2 c81 1 447 3 813 3 l665
1 22 55 21 55 -859 0 c-472 0 -859 -2 -859 -4z m1656 -38 c4 -4 1 -14 -6 -23
-11 -13 -109 -15 -787 -15 -764 0 -803 1 -803 31 0 4 10 9 23 11 47 7 1566 3
1573 -4z"/>
<path d="M765 2651 c-2 -2 10 -21 27 -42 l31 -39 677 0 677 0 31 39 c18 22 32
41 32 43 0 4 -1471 4 -1475 -1z"/>
<path d="M1020 2399 c0 -3 16 -13 35 -22 32 -15 82 -17 440 -17 358 0 408 2
440 17 19 9 35 19 35 22 0 3 -214 6 -475 6 -261 0 -475 -3 -475 -6z"/>
<path d="M1250 2153 c-59 -31 -75 -72 -75 -193 0 -87 3 -111 20 -140 28 -48
78 -73 132 -66 92 12 123 64 123 206 0 102 -20 163 -60 188 -36 22 -102 25
-140 5z m111 -95 c17 -28 20 -45 16 -110 -3 -57 -9 -83 -22 -98 -25 -28 -60
-25 -84 6 -17 22 -21 41 -21 108 0 96 15 126 61 126 22 0 34 -8 50 -32z"/>
<path d="M1561 2153 c-52 -26 -71 -78 -71 -198 0 -117 16 -159 71 -188 40 -21
106 -18 144 7 47 31 60 71 59 186 0 115 -13 156 -59 186 -37 24 -104 28 -144
7z m113 -88 c20 -31 24 -162 5 -196 -26 -51 -70 -53 -100 -6 -27 43 -24 174 5
206 26 29 70 27 90 -4z"/>
<path d="M870 1960 l0 -200 96 0 c52 0 104 5 115 10 21 12 59 80 59 106 0 10
-9 37 -21 61 -17 35 -19 46 -9 58 23 28 22 79 -3 116 -27 40 -48 47 -154 48
l-83 1 0 -200z m173 109 c5 -9 7 -28 3 -42 -6 -25 -11 -27 -56 -27 l-50 0 0
46 0 45 46 -3 c30 -2 51 -9 57 -19z m-93 -105 c0 -7 -27 -34 -34 -34 -3 0 -6
14 -6 30 0 28 2 30 20 20 11 -6 20 -13 20 -16z m126 -9 c13 -40 11 -42 -18
-16 -12 12 -18 26 -15 35 10 25 21 19 33 -19z m-32 -41 c19 -18 21 -55 4 -72
-7 -7 -34 -12 -60 -12 l-48 0 0 50 0 50 44 0 c27 0 51 -6 60 -16z"/>
<path d="M1810 1956 l0 -205 35 2 36 2 -2 135 c-1 118 -3 132 -15 115 -14 -18
-14 -18 -15 1 -5 80 0 114 16 114 20 0 42 -37 51 -85 6 -36 6 -39 -9 -26 -10
7 -17 12 -17 9 0 -9 69 -208 76 -219 4 -7 25 38 49 102 23 63 40 116 38 118
-1 2 -12 -6 -23 -19 -28 -33 -35 -19 -11 21 12 19 21 41 21 50 0 26 24 51 43
43 13 -5 17 -18 17 -61 0 -43 -3 -54 -14 -50 -18 7 -26 -41 -26 -162 0 -81 2
-92 16 -87 9 3 26 6 38 6 22 0 22 0 22 200 l0 200 -51 0 -51 0 -28 -85 c-15
-47 -31 -83 -35 -80 -4 2 -19 40 -32 85 l-24 80 -52 0 -53 0 0 -204z m159 24
c37 0 41 -6 24 -40 -16 -33 -38 -31 -46 3 -2 12 -7 29 -9 37 -3 8 -3 12 -1 8
3 -5 17 -8 32 -8z"/>
<path d="M7 1644 c-16 -17 -3 -19 95 -17 73 2 96 0 81 -7 -13 -5 -23 -11 -23
-13 0 -6 53 5 65 13 6 4 53 7 105 7 59 1 87 -2 75 -7 -32 -13 20 -16 55 -4 22
9 110 10 102 2 -4 -4 -20 -9 -37 -11 -34 -5 25 0 133 11 60 6 72 5 72 -8 0
-12 2 -12 9 -1 6 9 10 10 16 2 4 -8 11 -9 19 -2 6 6 61 10 121 10 61 0 122 3
137 5 16 2 28 0 28 -5 0 -5 -15 -9 -32 -9 -25 0 -29 -3 -18 -10 10 -7 -12 -9
-70 -9 -59 1 -77 4 -60 9 20 7 17 8 -17 7 -22 -1 -39 -5 -36 -9 2 -5 -120 -8
-271 -8 -208 0 -276 3 -276 12 0 9 -3 9 -12 0 -8 -8 -54 -12 -142 -12 -71 0
-127 -3 -123 -6 3 -3 175 -6 382 -6 342 -1 415 -6 334 -24 -37 -8 -133 -4
-139 6 -3 5 -21 5 -41 1 -57 -13 -169 -13 -169 -1 0 8 -11 9 -32 5 -18 -4 -53
-8 -78 -9 -25 0 -46 -5 -47 -11 -2 -6 40 -9 115 -8 91 2 111 1 92 -8 -14 -6
-73 -10 -135 -8 -168 3 -242 0 -227 -10 11 -7 10 -10 -3 -15 -9 -3 -25 -6 -36
-6 -10 0 -19 -4 -19 -10 0 -5 6 -8 13 -6 64 19 118 27 210 30 59 2 107 2 107
1 0 -2 -31 -12 -69 -24 -47 -14 -101 -22 -168 -23 l-98 -2 80 -4 80 -3 -80
-27 -80 -27 65 -5 c36 -3 74 -3 85 0 11 3 -5 7 -35 10 l-55 5 77 23 c42 12
105 23 140 24 60 1 61 1 18 7 l-45 7 50 13 c51 14 290 31 277 20 -19 -16 -98
-39 -140 -41 -40 -1 -42 -2 -12 -5 l35 -5 -55 -23 c-34 -15 -78 -25 -115 -26
-36 -1 -47 -4 -27 -6 17 -2 32 -8 32 -12 0 -14 -106 -51 -148 -51 -41 0 -59
-15 -25 -22 10 -2 -11 -16 -50 -33 -36 -17 -67 -33 -67 -37 0 -5 96 -8 212 -8
l213 0 -67 -45 -67 -45 -146 0 c-101 0 -145 -3 -145 -11 0 -8 36 -10 130 -4
72 4 130 5 130 2 0 -3 -48 -40 -107 -81 -152 -107 -153 -108 -153 -118 0 -5
13 0 29 11 17 12 45 21 66 21 23 0 34 4 30 11 -4 6 -13 8 -21 5 -37 -14 -4 15
91 82 74 51 114 72 137 73 25 1 27 3 10 6 -21 4 -15 10 44 49 l67 44 186 0
185 0 -44 -45 -44 -45 -165 0 c-119 0 -162 -3 -154 -11 7 -7 59 -10 152 -7 78
1 140 0 139 -4 -2 -3 -33 -38 -70 -77 -64 -66 -69 -70 -103 -64 -23 4 -35 2
-35 -6 0 -6 14 -11 32 -11 l31 0 -54 -58 c-30 -31 -71 -76 -91 -100 l-38 -42
-187 -2 -188 -3 183 -2 182 -3 -117 -138 c-65 -75 -132 -155 -150 -176 -26
-32 -36 -37 -57 -32 -13 3 -27 2 -31 -3 -3 -5 7 -11 22 -13 l27 -3 -33 -37
c-18 -21 -31 -43 -29 -49 2 -7 21 11 42 39 l38 52 359 0 c197 0 359 -2 359 -4
0 -2 -27 -68 -61 -147 -88 -209 -100 -239 -90 -239 5 0 37 66 71 148 33 81 65
156 70 167 5 11 14 32 20 47 l10 28 337 0 338 0 -3 -195 c-2 -130 1 -195 8
-195 6 0 10 67 10 195 l0 195 334 0 333 0 80 -192 c44 -106 85 -194 91 -196 9
-3 -43 134 -94 245 -8 17 -14 34 -14 37 0 3 -11 29 -24 56 l-24 50 363 0 363
0 37 -46 c20 -25 40 -43 43 -40 3 4 -9 24 -27 46 l-32 40 26 0 c14 0 25 5 25
10 0 6 -13 8 -29 5 -26 -4 -38 6 -164 153 -74 87 -143 164 -152 172 -16 13 3
16 171 20 l189 6 -191 2 -192 2 -92 100 c-84 91 -90 100 -66 100 14 0 26 5 26
11 0 7 -11 9 -28 6 -33 -7 -30 -9 -115 79 l-68 70 151 -4 c104 -3 155 -1 163
7 8 8 -33 11 -159 11 l-169 1 -38 44 -38 45 181 0 181 0 66 -44 c63 -43 64
-45 37 -49 -24 -3 -23 -4 9 -6 37 -1 54 -11 240 -143 15 -11 -14 -12 -171 -10
-130 3 -192 0 -196 -7 -5 -8 53 -11 201 -11 175 0 212 -3 231 -16 13 -9 26
-14 29 -10 6 5 -21 36 -32 36 -7 0 -193 127 -213 145 -10 9 14 11 111 7 86 -3
126 -1 131 7 5 8 -32 11 -136 11 l-143 0 -69 45 -69 45 111 0 c73 0 112 4 112
11 0 7 -40 10 -122 8 l-123 -3 -52 33 c-52 32 -67 46 -38 35 8 -4 15 -1 15 5
0 6 -14 11 -30 11 -17 0 -49 12 -73 27 l-42 27 30 7 c27 6 25 7 -15 8 -28 1
-60 11 -84 26 l-39 24 34 4 c31 3 30 4 -9 5 -37 2 -122 34 -122 47 0 2 13 2
30 -1 18 -4 30 -2 30 4 0 10 -113 22 -117 12 -5 -9 -197 1 -207 10 -13 13 395
12 414 0 11 -7 1 -10 -32 -10 -27 0 -48 -4 -48 -10 0 -6 33 -10 78 -10 56 0
88 -6 117 -20 l40 -20 -53 4 c-29 2 -55 -1 -58 -5 -3 -5 28 -9 69 -9 58 0 87
-6 128 -24 l54 -25 -53 0 c-33 -1 -51 -5 -47 -11 4 -6 31 -8 68 -4 55 5 69 2
124 -23 49 -23 60 -32 51 -41 -9 -9 -4 -12 24 -12 31 0 168 -52 168 -63 0 -2
-13 -3 -30 -2 -16 1 -35 -2 -42 -6 -8 -5 16 -9 55 -9 38 0 77 -5 88 -10 15 -8
19 -7 19 5 0 8 -3 15 -7 16 -33 3 -61 13 -111 38 -31 17 -51 30 -44 31 6 0 12
5 12 10 0 6 -18 10 -40 10 -23 0 -63 12 -96 28 l-56 27 43 6 c42 6 40 6 -18 7
-36 1 -85 11 -120 25 l-58 22 45 6 c44 6 44 6 -15 8 -38 1 -78 9 -108 24 l-49
22 104 -3 c60 -1 128 -9 163 -20 l60 -17 -50 -6 c-48 -6 -47 -6 20 -8 44 -1
96 -10 140 -25 l70 -24 -40 -4 c-31 -4 -27 -5 21 -6 34 -1 78 -9 98 -17 21 -9
36 -11 36 -5 0 5 -8 10 -17 11 -15 0 -15 2 2 9 16 7 13 9 -16 9 -19 1 -66 12
-105 25 l-69 25 103 0 c81 1 102 4 102 15 0 8 -14 17 -32 21 -57 11 -68 16
-63 26 4 5 -15 9 -42 9 -58 0 -126 18 -118 31 4 5 -8 7 -26 5 -18 -2 -47 0
-66 4 -18 5 -33 4 -33 -1 0 -11 -177 -6 -204 6 -13 6 -17 5 -13 -3 5 -7 -10
-9 -48 -7 -30 2 -55 0 -55 -6 0 -9 106 -13 295 -10 55 1 114 -3 130 -8 27 -8
23 -9 -29 -10 -102 -2 -50 -16 82 -22 70 -4 147 -13 172 -22 l45 -15 -116 -1
c-91 -1 -130 3 -180 19 -35 11 -66 25 -70 32 -5 7 -56 10 -154 9 -111 -1 -153
2 -169 13 -12 7 -36 17 -54 20 -86 19 -11 24 353 23 217 -1 395 1 395 6 0 4
-67 7 -150 7 -93 0 -150 4 -150 10 0 6 -10 10 -22 11 -13 0 -32 4 -43 9 -14 7
-5 8 28 5 27 -3 53 -8 59 -11 6 -4 9 -3 6 2 -4 5 14 9 38 9 31 0 43 -4 39 -12
-3 -10 10 -13 48 -11 50 1 50 2 10 5 -24 2 -43 8 -43 14 0 14 107 11 122 -4
14 -14 58 -18 58 -6 0 4 -10 10 -22 12 l-23 4 23 2 c12 0 22 6 22 12 0 8 -190
9 -712 4 -392 -5 -744 -7 -782 -6 -58 2 -68 0 -63 -13 4 -10 1 -13 -9 -9 -7 3
-14 9 -14 14 0 6 -60 10 -142 9 -79 0 -395 2 -703 6 -308 3 -563 3 -568 -2z
m1722 -30 c2 -2 -16 -5 -40 -6 -37 -1 -34 -2 21 -8 l65 -7 -67 -1 c-38 -1 -68
0 -68 2 0 2 -3 11 -6 19 -4 12 3 14 43 10 26 -3 50 -7 52 -9z m769 -3 c13 -7
28 -10 35 -7 7 2 4 5 -5 5 -10 1 -18 5 -18 9 0 5 26 5 58 0 138 -21 110 -26
-155 -27 -155 0 -273 4 -273 9 0 5 -12 11 -27 13 -16 2 -2 5 30 6 32 0 56 -3
53 -8 -4 -5 11 -5 34 0 23 5 53 7 68 4 15 -3 56 -7 92 -9 36 -1 50 -1 32 1
-18 2 -30 8 -27 13 8 13 75 7 103 -9z m-1343 -1 l-70 -6 60 -5 c53 -5 50 -5
-30 -7 -84 -1 -88 0 -60 13 17 8 60 13 100 12 l70 -1 -70 -6z m199 -5 c-5 -11
-23 -15 -78 -15 -53 1 -67 3 -53 11 9 5 22 7 29 3 6 -4 8 -3 5 3 -4 7 14 11
48 12 44 1 53 -2 49 -14z m46 5 c-11 -7 -3 -10 28 -10 26 0 41 4 37 10 -3 6 1
10 9 10 9 0 16 -7 16 -15 0 -12 -14 -15 -66 -15 -58 0 -65 2 -54 15 7 8 20 15
29 15 14 0 14 -2 1 -10z m220 -5 c11 -13 5 -15 -49 -15 -48 0 -61 3 -61 15 0
11 12 15 49 15 31 0 53 -5 61 -15z m225 4 c-36 -7 -35 -7 10 -3 145 14 173 14
220 0 l50 -14 -82 -1 c-45 -1 -85 4 -88 9 -3 6 -16 10 -28 9 -21 0 -21 -1 -2
-9 14 -5 -3 -9 -54 -11 -40 -2 -78 -1 -85 3 -7 5 -6 8 4 9 8 1 2 5 -15 9 -22
6 -11 8 40 7 61 0 65 -1 30 -8z m-885 -40 c0 -13 -30 -18 -112 -17 -74 0 -104
12 -55 21 40 7 167 5 167 -4z m210 -1 c0 -5 -4 -8 -10 -8 -5 0 -18 -10 -29
-21 -17 -19 -32 -21 -119 -23 -79 -1 -98 2 -90 12 7 8 42 12 105 12 52 0 92 4
89 8 -2 4 -37 7 -78 5 -61 -2 -70 0 -56 10 18 14 188 18 188 5z m167 2 c1 0
-4 -12 -12 -26 -12 -24 -17 -26 -99 -27 -47 -1 -86 1 -86 5 0 15 27 21 94 19
39 -1 68 0 65 3 -3 3 -31 7 -62 7 -51 2 -66 7 -52 20 3 3 128 3 152 -1z m153
-52 l0 -58 -90 0 c-49 0 -90 3 -90 8 1 27 21 35 89 33 45 -2 71 2 71 8 0 7
-27 11 -69 11 l-69 0 13 28 c13 25 18 27 79 27 l66 1 0 -58z m163 30 l16 -28
-69 0 c-43 0 -70 -4 -70 -11 0 -6 26 -10 71 -8 68 2 88 -6 89 -34 0 -4 -39 -6
-87 -5 l-88 3 -1 56 -2 55 63 0 c57 0 63 -2 78 -28z m145 14 c4 -14 -123 -18
-132 -3 -9 14 0 16 65 16 40 0 64 -5 67 -13z m203 1 c7 -7 -18 -11 -79 -12
-65 0 -93 3 -101 13 -10 11 3 13 79 11 50 -1 95 -6 101 -12z m166 10 c55 -9
27 -21 -50 -22 -50 0 -80 4 -93 14 -17 13 -13 14 46 14 36 0 80 -3 97 -6z
m-1501 -40 c-7 -7 -226 -22 -226 -15 0 1 10 7 23 12 27 11 213 13 203 3z m231
-4 c-10 -6 -65 -11 -122 -12 -87 -2 -102 0 -88 11 11 8 53 12 122 12 78 -1
101 -3 88 -11z m937 5 c34 -13 13 -19 -54 -16 -46 2 -70 0 -70 -7 0 -7 30 -11
83 -11 70 0 87 -3 101 -19 18 -19 16 -20 -82 -20 l-100 0 -13 32 c-7 17 -14
35 -17 40 -4 8 129 10 152 1z m-984 -28 c0 -14 -73 -46 -106 -47 -33 -2 -34
-3 -10 -6 l29 -5 -39 -23 c-22 -14 -52 -25 -68 -25 -20 0 -27 -4 -23 -14 7
-18 -50 -56 -83 -56 -13 0 -20 -5 -18 -12 3 -7 -16 -26 -41 -42 l-46 -29 -197
-1 c-109 -1 -198 0 -198 2 0 12 133 62 165 62 27 0 36 3 26 9 -11 7 -1 16 37
35 43 22 65 26 132 26 47 0 80 4 80 10 0 6 -24 10 -52 11 l-53 0 54 25 c36 16
74 24 115 26 59 1 60 1 16 7 l-45 6 35 15 c20 8 87 17 155 20 66 3 123 7 128
8 4 1 7 0 7 -2z m225 -26 c-10 -11 -32 -21 -49 -21 -25 -1 -27 -3 -8 -6 l24
-5 -23 -24 c-16 -17 -33 -24 -60 -24 -21 0 -41 -4 -44 -10 -4 -6 7 -10 26 -10
l32 0 -23 -25 c-14 -15 -35 -25 -52 -25 -15 0 -28 -4 -28 -10 0 -5 7 -10 16
-10 11 0 6 -9 -16 -31 l-31 -32 -180 -1 c-98 0 -179 0 -179 1 0 11 95 63 114
63 16 0 24 5 21 13 -9 22 60 57 115 57 27 0 50 5 50 10 0 6 -15 10 -32 10
l-33 0 37 25 c26 17 52 25 85 26 45 2 46 2 13 8 l-35 7 25 14 c21 13 234 32
249 23 2 -2 -4 -12 -14 -23z m220 0 c-6 -19 -13 -22 -49 -18 -22 3 -50 1 -61
-3 -13 -5 -1 -8 37 -8 l58 -1 -12 -25 c-7 -16 -19 -25 -34 -25 -13 0 -26 -4
-29 -10 -4 -6 5 -10 20 -10 25 0 25 -1 12 -26 -14 -26 -16 -27 -110 -25 -63 1
-97 -2 -97 -8 0 -7 33 -11 90 -11 50 0 90 -2 90 -5 0 -2 -5 -15 -11 -29 -12
-25 -12 -25 -170 -28 -88 -2 -159 -1 -159 1 0 17 58 61 79 61 20 0 23 2 11 10
-12 7 -11 13 10 34 13 15 34 26 46 26 13 0 26 5 29 10 3 6 -2 10 -11 10 -15 0
-14 4 6 25 16 17 35 25 59 26 34 1 35 2 7 8 -27 6 -28 7 -9 23 14 13 41 18
108 20 50 2 92 2 93 1 2 -1 1 -11 -3 -23z m848 -1 l32 -19 -117 1 c-105 1
-118 3 -137 22 l-20 22 105 -3 c83 -3 112 -7 137 -23z m-653 -54 l0 -25 -106
0 c-58 0 -103 3 -101 8 2 4 7 15 10 25 5 15 20 17 102 17 95 0 95 0 95 -25z
m219 3 c7 -20 5 -24 -18 -28 -30 -7 -171 -3 -178 4 -3 2 -2 14 2 25 6 19 14
21 96 21 84 0 90 -1 98 -22z m251 -3 l23 -25 -22 0 c-12 0 -19 -4 -16 -10 3
-5 20 -10 36 -10 32 0 85 -43 74 -60 -3 -6 0 -10 9 -10 11 0 76 -54 76 -63 0
-1 -73 -1 -162 0 l-161 1 -14 26 c-8 15 -11 31 -8 36 3 6 2 10 -4 10 -5 0 -16
14 -25 30 l-14 30 89 0 c58 0 88 4 84 10 -3 6 -46 10 -94 10 -84 0 -88 1 -99
25 l-12 25 108 0 c103 0 110 -1 132 -25z m278 0 l37 -25 -83 0 c-51 0 -82 -4
-82 -11 0 -7 32 -9 93 -7 83 3 98 0 140 -22 26 -14 47 -29 47 -33 0 -5 -4 -5
-10 -2 -5 3 -10 1 -10 -4 0 -6 12 -11 26 -11 23 0 108 -42 118 -58 2 -4 -75
-6 -171 -6 l-175 2 -28 27 c-16 15 -26 34 -23 41 3 9 -2 14 -14 14 -11 0 -32
14 -48 30 l-29 30 32 -6 c21 -4 32 -3 32 5 0 6 -18 11 -43 11 -33 0 -49 6 -67
25 l-23 25 122 0 c114 0 125 -2 159 -25z m-748 -75 c0 -17 -5 -30 -12 -31 -10
0 -10 -2 0 -6 6 -2 12 -19 12 -36 l0 -32 -140 0 c-77 0 -140 3 -140 7 0 19 25
58 36 58 7 0 11 6 8 14 -3 8 -1 24 6 35 10 19 20 21 120 21 l110 0 0 -30z
m252 4 c10 -21 9 -27 -3 -35 -11 -7 -10 -9 7 -9 18 0 44 -34 44 -58 0 -4 -62
-6 -137 -5 l-138 2 -2 31 -3 30 85 0 c53 0 85 4 85 11 0 6 -29 9 -81 8 -82 -2
-82 -2 -85 24 l-3 27 110 0 c108 0 110 0 121 -26z m-584 -169 l-22 -45 -190 0
-190 0 44 45 44 45 168 0 168 0 -22 -45z m332 0 l0 -45 -147 0 c-103 0 -144
-3 -136 -11 6 -6 60 -9 146 -7 129 3 136 2 143 -17 7 -20 7 -20 11 0 4 19 10
20 140 17 88 -2 139 0 146 7 8 8 -31 11 -136 11 l-147 0 0 45 0 45 145 0 145
0 21 -41 c17 -34 18 -43 7 -50 -10 -7 -9 -9 3 -9 11 0 30 -27 53 -76 20 -42
36 -77 36 -78 0 0 -92 -1 -205 -1 l-205 0 0 38 c0 20 -5 37 -11 37 -6 0 -9
-15 -7 -35 l3 -35 -208 -3 c-114 -1 -207 -1 -207 -1 0 1 16 36 36 78 23 49 42
76 53 76 12 0 13 2 3 8 -9 7 -8 17 5 50 l18 42 148 0 147 0 0 -45z m709 1 c37
-38 41 -45 25 -49 -14 -3 -12 -5 7 -6 18 -1 45 -21 92 -71 76 -81 87 -96 64
-87 -10 3 -17 2 -17 -3 0 -6 10 -10 23 -10 15 0 51 -31 115 -99 82 -89 90
-100 70 -104 -20 -4 -20 -4 4 -6 22 -1 55 -33 172 -170 80 -93 146 -171 146
-173 0 -1 -160 -2 -357 -1 l-356 3 -37 87 c-21 49 -54 123 -74 167 -20 43 -36
80 -36 82 0 2 116 5 258 7 l257 2 -260 3 -260 2 -38 84 c-20 47 -40 92 -43
100 -5 14 17 16 196 16 136 0 199 3 195 10 -4 7 -78 10 -207 10 l-201 -2 -34
73 c-18 39 -33 72 -33 73 0 0 66 0 146 -2 96 -2 150 0 157 7 8 8 -35 11 -149
11 l-160 0 -22 45 -22 45 168 0 168 0 43 -44z m-1077 -66 c4 0 -8 -32 -26 -71
l-33 -70 -230 -2 -230 -2 68 75 69 75 187 -2 c104 -2 191 -3 195 -3z m-76
-176 c-3 -8 -23 -53 -43 -100 l-38 -84 -255 -2 -255 -3 253 -2 c140 -2 252 -7
250 -12 -2 -4 -36 -82 -76 -172 l-73 -164 -354 0 c-233 0 -351 3 -347 10 3 6
69 83 145 173 99 114 146 162 161 162 15 0 17 3 8 8 -9 6 11 35 74 105 l87 97
235 0 c208 0 233 -2 228 -16z m455 -6 l2 -23 4 23 c4 22 5 22 213 22 l208 0
41 -94 c23 -51 41 -96 41 -100 0 -3 -112 -6 -250 -6 l-250 0 0 26 c0 15 -4 23
-10 19 -6 -4 -9 -14 -8 -23 3 -15 -20 -17 -254 -20 l-256 -2 23 47 c12 27 33
72 45 101 l22 52 214 0 214 0 1 -22z m-8 -359 l-2 -170 -331 -2 c-181 -1 -330
-1 -330 0 0 3 76 176 107 243 14 30 29 65 34 78 l9 22 257 0 258 0 -2 -171z
m537 161 c0 -6 30 -79 66 -163 36 -84 68 -156 70 -162 3 -7 -110 -10 -326 -10
l-330 0 0 173 0 172 260 0 c172 0 260 -3 260 -10z"/>
<path d="M1388 1543 c18 -2 45 -2 60 0 15 2 0 4 -33 4 -33 0 -45 -2 -27 -4z"/>
<path d="M1550 1549 c-18 -5 -9 -7 34 -8 33 -1 57 1 54 4 -9 10 -62 12 -88 4z"/>
<path d="M800 1390 c-11 -7 3 -10 45 -10 42 0 56 3 45 10 -8 5 -28 10 -45 10
-16 0 -37 -5 -45 -10z"/>
<path d="M740 1320 c0 -5 20 -10 45 -10 25 0 45 5 45 10 0 6 -20 10 -45 10
-25 0 -45 -4 -45 -10z"/>
<path d="M1080 1390 c0 -5 23 -10 51 -10 31 0 48 4 44 10 -3 6 -26 10 -51 10
-24 0 -44 -4 -44 -10z"/>
<path d="M1310 1320 c0 -5 23 -10 50 -10 28 0 50 5 50 10 0 6 -22 10 -50 10
-27 0 -50 -4 -50 -10z"/>
<path d="M108 1565 c-4 -5 -47 -11 -90 -14 -10 0 -18 -6 -18 -12 0 -6 9 -8 20
-4 11 3 50 7 87 7 38 1 56 3 40 5 -15 3 -25 9 -22 14 6 9 -8 13 -17 4z"/>
<path d="M2788 1549 c-15 -10 185 -18 202 -8 10 6 -1 9 -35 11 -95 4 -157 3
-167 -3z"/>
<path d="M175 970 c-4 -6 45 -10 139 -10 91 0 146 4 146 10 0 6 -53 10 -139
10 -83 0 -142 -4 -146 -10z"/>
</g>
</svg>
